<svg width="114" height="24" viewBox="0 0 114 24" fill="none" xmlns="http://www.w3.org/2000/svg">
<path d="M9.53003 4.54626C4.25988 4.54626 0.0067749 8.80552 0.0067749 14.0833C0.0067749 19.3611 4.25988 23.574 9.53003 23.574C11.3792 23.574 13.0897 23.0185 14.569 22.1389V23.574H19.0533V14.0833C19.0071 8.80552 14.754 4.54626 9.53003 4.54626ZM9.53003 19.0833C6.75627 19.0833 4.49103 16.8148 4.49103 14.037C4.49103 11.2592 6.75627 8.99071 9.53003 8.99071C12.3038 8.99071 14.5228 11.3055 14.5228 14.0833C14.5228 16.8611 12.3038 19.0833 9.53003 19.0833Z" fill="black"/>
<path d="M87.9813 4.54626C82.7112 4.54626 78.4581 8.80552 78.4581 14.0833C78.4581 19.3611 82.7574 23.574 87.9813 23.574C89.8305 23.574 91.541 23.0185 93.0203 22.1389V23.574H97.5046V14.0833C97.5046 8.80552 93.2515 4.54626 87.9813 4.54626ZM87.9813 19.0833C85.2076 19.0833 82.9423 16.8148 82.9423 14.037C82.9423 11.2592 85.2076 8.99071 87.9813 8.99071C90.7551 8.99071 93.0203 11.2592 93.0203 14.037C93.0203 16.8611 90.7551 19.0833 87.9813 19.0833Z" fill="black"/>
<path d="M70.3217 4.5463C65.0516 4.5463 60.7985 8.80556 60.7985 14.0833C60.7985 19.3611 65.0516 23.5741 70.3217 23.5741H75.3607V19.0833H70.3217C67.548 19.0833 65.2827 16.8148 65.2827 14.037C65.2827 11.2593 67.548 8.99074 70.3217 8.99074H75.3607V4.5L70.3217 4.5463Z" fill="black"/>
<path d="M111.004 4.54626C105.733 4.54626 101.48 8.80552 101.48 14.0833V23.574H105.965V14.0833C105.965 11.3055 108.23 9.03701 111.004 9.03701H113.5V4.54626H111.004Z" fill="black"/>
<path d="M32.506 4.54626C30.6569 4.54626 28.9464 5.10182 27.467 5.98145V4.54626H22.9828V23.574H27.467V14.037C27.467 11.2592 29.7323 9.03701 32.506 9.03701C35.2798 9.03701 37.5451 11.3055 37.5451 14.0833V23.574H42.0293V14.0833C41.9831 8.80552 37.73 4.54626 32.506 4.54626Z" fill="black"/>
<path d="M50.0732 14.0833V9.03702H55.1123V4.54628H50.0732V0.055542H45.589V4.54628V9.03702V14.0833C45.589 19.2685 49.7496 23.4815 54.9273 23.5741H57.4237V19.0833H55.1123C52.2923 19.0833 50.0732 16.8611 50.0732 14.0833Z" fill="black"/>
</svg>
